<svg xmlns="http://www.w3.org/2000/svg" viewBox="0 0 32 32" width="32" height="32">
  <!-- dune: sandworm arcing over dunes, moon above -->
  <!-- moon (small crescent, top right) -->
  <circle cx="24" cy="5" r="0.4" fill="#000"/>
  <circle cx="25.2" cy="4.5" r="0.4" fill="#000"/>
  <circle cx="25.8" cy="5.5" r="0.4" fill="#000"/>
  <circle cx="25" cy="6.2" r="0.4" fill="#000"/>
  <circle cx="23.5" cy="6" r="0.4" fill="#000"/>
  <circle cx="24.5" cy="5.5" r="0.4" fill="#000" opacity="0.3"/>
  <!-- sandworm body - arcing from left ground up and curving right -->
  <!-- emerging from sand (left, dense) -->
  <circle cx="4" cy="22" r="0.4" fill="#000"/>
  <circle cx="4.5" cy="21" r="0.4" fill="#000"/>
  <circle cx="5" cy="22.5" r="0.4" fill="#000"/>
  <circle cx="5.5" cy="21.5" r="0.4" fill="#000"/>
  <circle cx="5" cy="20" r="0.4" fill="#000"/>
  <circle cx="5.5" cy="19" r="0.4" fill="#000"/>
  <circle cx="4.5" cy="20.5" r="0.4" fill="#000"/>
  <circle cx="6" cy="20.5" r="0.4" fill="#000"/>
  <circle cx="6.5" cy="19.5" r="0.4" fill="#000"/>
  <!-- body rising -->
  <circle cx="6" cy="18" r="0.4" fill="#000"/>
  <circle cx="6.5" cy="17" r="0.4" fill="#000"/>
  <circle cx="7" cy="18.5" r="0.4" fill="#000"/>
  <circle cx="7" cy="16" r="0.4" fill="#000"/>
  <circle cx="7.5" cy="17" r="0.4" fill="#000"/>
  <circle cx="7.5" cy="15" r="0.4" fill="#000"/>
  <circle cx="8" cy="16" r="0.4" fill="#000"/>
  <!-- body curving up (medium density) -->
  <circle cx="8.5" cy="14" r="0.4" fill="#000"/>
  <circle cx="9" cy="13" r="0.4" fill="#000"/>
  <circle cx="9" cy="14.5" r="0.4" fill="#000"/>
  <circle cx="9.5" cy="12" r="0.4" fill="#000"/>
  <circle cx="10" cy="13" r="0.4" fill="#000"/>
  <circle cx="10.5" cy="11.2" r="0.4" fill="#000"/>
  <circle cx="11" cy="12" r="0.4" fill="#000"/>
  <!-- top of arc -->
  <circle cx="11.5" cy="10.5" r="0.4" fill="#000"/>
  <circle cx="12.5" cy="10" r="0.4" fill="#000"/>
  <circle cx="12" cy="11" r="0.4" fill="#000"/>
  <circle cx="13.5" cy="9.8" r="0.4" fill="#000"/>
  <circle cx="13" cy="10.5" r="0.4" fill="#000"/>
  <circle cx="14.5" cy="9.8" r="0.4" fill="#000"/>
  <circle cx="14" cy="10.5" r="0.4" fill="#000"/>
  <circle cx="15.5" cy="10" r="0.4" fill="#000"/>
  <circle cx="15" cy="10.8" r="0.4" fill="#000"/>
  <!-- descending toward mouth -->
  <circle cx="16.5" cy="10.5" r="0.4" fill="#000"/>
  <circle cx="16" cy="11.2" r="0.4" fill="#000"/>
  <circle cx="17" cy="11" r="0.4" fill="#000"/>
  <circle cx="17.5" cy="11.8" r="0.4" fill="#000"/>
  <circle cx="18" cy="12.5" r="0.4" fill="#000"/>
  <circle cx="18.5" cy="13.2" r="0.4" fill="#000"/>
  <!-- worm mouth (open, three segments) -->
  <circle cx="19" cy="14" r="0.4" fill="#000"/>
  <circle cx="19.5" cy="13" r="0.4" fill="#000"/>
  <circle cx="20" cy="12.2" r="0.4" fill="#000"/>
  <circle cx="20.8" cy="11.8" r="0.4" fill="#000"/>
  <circle cx="19.5" cy="14.8" r="0.4" fill="#000"/>
  <circle cx="20.2" cy="14.2" r="0.4" fill="#000"/>
  <circle cx="21" cy="13" r="0.4" fill="#000"/>
  <circle cx="21.5" cy="12.5" r="0.4" fill="#000"/>
  <circle cx="19.2" cy="15.5" r="0.4" fill="#000"/>
  <circle cx="20" cy="15.5" r="0.4" fill="#000"/>
  <circle cx="20.8" cy="15" r="0.4" fill="#000"/>
  <circle cx="21.2" cy="14" r="0.4" fill="#000"/>
  <!-- sand dunes - front dune (dense) -->
  <circle cx="1" cy="25" r="0.4" fill="#000"/>
  <circle cx="2.5" cy="24.5" r="0.4" fill="#000"/>
  <circle cx="4" cy="24" r="0.4" fill="#000"/>
  <circle cx="5.5" cy="23.5" r="0.4" fill="#000"/>
  <circle cx="7" cy="23.5" r="0.4" fill="#000"/>
  <circle cx="8.5" cy="24" r="0.4" fill="#000"/>
  <circle cx="10" cy="24.5" r="0.4" fill="#000"/>
  <circle cx="11.5" cy="24.2" r="0.4" fill="#000"/>
  <circle cx="13" cy="23.8" r="0.4" fill="#000"/>
  <circle cx="14.5" cy="23.5" r="0.4" fill="#000"/>
  <circle cx="16" cy="23.5" r="0.4" fill="#000"/>
  <circle cx="17.5" cy="23.8" r="0.4" fill="#000"/>
  <circle cx="19" cy="24" r="0.4" fill="#000"/>
  <circle cx="20.5" cy="24.2" r="0.4" fill="#000"/>
  <circle cx="22" cy="24" r="0.4" fill="#000"/>
  <circle cx="23.5" cy="23.5" r="0.4" fill="#000"/>
  <circle cx="25" cy="23.2" r="0.4" fill="#000"/>
  <circle cx="26.5" cy="23.5" r="0.4" fill="#000"/>
  <circle cx="28" cy="24" r="0.4" fill="#000"/>
  <circle cx="29.5" cy="24.5" r="0.4" fill="#000"/>
  <circle cx="31" cy="25" r="0.4" fill="#000"/>
  <!-- dune ridge shadow (denser below crest) -->
  <circle cx="2" cy="25.5" r="0.4" fill="#000"/>
  <circle cx="3.5" cy="25" r="0.4" fill="#000"/>
  <circle cx="5" cy="24.5" r="0.4" fill="#000"/>
  <circle cx="6.5" cy="24.2" r="0.4" fill="#000"/>
  <circle cx="8" cy="24.8" r="0.4" fill="#000"/>
  <circle cx="9.5" cy="25" r="0.4" fill="#000"/>
  <circle cx="11" cy="25" r="0.4" fill="#000"/>
  <circle cx="12.5" cy="24.8" r="0.4" fill="#000"/>
  <circle cx="14" cy="24.2" r="0.4" fill="#000"/>
  <circle cx="15.5" cy="24.2" r="0.4" fill="#000"/>
  <circle cx="17" cy="24.5" r="0.4" fill="#000"/>
  <circle cx="18.5" cy="24.8" r="0.4" fill="#000"/>
  <circle cx="20" cy="25" r="0.4" fill="#000"/>
  <circle cx="21.5" cy="24.8" r="0.4" fill="#000"/>
  <circle cx="23" cy="24.2" r="0.4" fill="#000"/>
  <circle cx="24.5" cy="24" r="0.4" fill="#000"/>
  <circle cx="26" cy="24.2" r="0.4" fill="#000"/>
  <circle cx="27.5" cy="24.8" r="0.4" fill="#000"/>
  <circle cx="29" cy="25.2" r="0.4" fill="#000"/>
  <circle cx="30.5" cy="25.5" r="0.4" fill="#000"/>
  <!-- back dune (sparse, further away) -->
  <circle cx="3" cy="22" r="0.4" fill="#000" opacity="0.35"/>
  <circle cx="8" cy="21.5" r="0.4" fill="#000" opacity="0.35"/>
  <circle cx="10" cy="21" r="0.4" fill="#000" opacity="0.3"/>
  <circle cx="12" cy="20.5" r="0.4" fill="#000" opacity="0.3"/>
  <circle cx="14" cy="20.2" r="0.4" fill="#000" opacity="0.25"/>
  <circle cx="16" cy="20" r="0.4" fill="#000" opacity="0.25"/>
  <circle cx="18" cy="20.2" r="0.4" fill="#000" opacity="0.25"/>
  <circle cx="20" cy="20.5" r="0.4" fill="#000" opacity="0.3"/>
  <circle cx="22" cy="21" r="0.4" fill="#000" opacity="0.3"/>
  <circle cx="24" cy="21.5" r="0.4" fill="#000" opacity="0.35"/>
  <circle cx="26" cy="22" r="0.4" fill="#000" opacity="0.35"/>
  <circle cx="28" cy="22.5" r="0.4" fill="#000" opacity="0.35"/>
  <!-- sand texture (very sparse, scattered) -->
  <circle cx="2" cy="27" r="0.4" fill="#000" opacity="0.5"/>
  <circle cx="5" cy="26.5" r="0.4" fill="#000" opacity="0.45"/>
  <circle cx="8" cy="27" r="0.4" fill="#000" opacity="0.4"/>
  <circle cx="11" cy="26.5" r="0.4" fill="#000" opacity="0.35"/>
  <circle cx="14" cy="27" r="0.4" fill="#000" opacity="0.3"/>
  <circle cx="17" cy="26.5" r="0.4" fill="#000" opacity="0.3"/>
  <circle cx="20" cy="27" r="0.4" fill="#000" opacity="0.35"/>
  <circle cx="23" cy="26.5" r="0.4" fill="#000" opacity="0.4"/>
  <circle cx="26" cy="27" r="0.4" fill="#000" opacity="0.45"/>
  <circle cx="29" cy="26.5" r="0.4" fill="#000" opacity="0.5"/>
  <circle cx="3.5" cy="28.5" r="0.4" fill="#000" opacity="0.25"/>
  <circle cx="9" cy="28.5" r="0.4" fill="#000" opacity="0.2"/>
  <circle cx="15" cy="28.5" r="0.4" fill="#000" opacity="0.15"/>
  <circle cx="21" cy="28.5" r="0.4" fill="#000" opacity="0.2"/>
  <circle cx="27" cy="28.5" r="0.4" fill="#000" opacity="0.25"/>
</svg>
